<svg width="173" height="96" viewBox="0 0 173 96" fill="none" xmlns="http://www.w3.org/2000/svg">
<mask id="mask0_6899_35780" style="mask-type:alpha" maskUnits="userSpaceOnUse" x="96" y="69" width="77" height="21">
<rect x="96" y="69" width="76.1539" height="20.3708" fill="url(#paint0_linear_6899_35780)"/>
</mask>
<g mask="url(#mask0_6899_35780)">
<path fill-rule="evenodd" clip-rule="evenodd" d="M98.6898 71.4692L98.6898 85.5436L110.449 85.5436L110.449 71.4692L98.6898 71.4692ZM98.4098 85.8042L110.729 85.8042L110.729 71.2086L98.4098 71.2086L98.4098 85.8042Z" fill="#303030"/>
<path fill-rule="evenodd" clip-rule="evenodd" d="M110.729 70.1661L110.729 86.8468L140.126 86.8468L140.126 70.1661L110.729 70.1661ZM110.449 87.1074L140.406 87.1074L140.406 69.9054L110.449 69.9054L110.449 87.1074Z" fill="#303030"/>
<rect x="98.6895" y="85.5712" width="2.08509" height="11.7591" transform="rotate(-90 98.6895 85.5712)" fill="#C4C4C4"/>
<rect x="110.729" y="86.8054" width="2.867" height="29.3976" transform="rotate(-90 110.729 86.8054)" fill="#C4C4C4"/>
<rect x="140.407" y="79.8646" width="1.82445" height="34.1572" transform="rotate(-90 140.407 79.8646)" fill="#C4C4C4"/>
<path fill-rule="evenodd" clip-rule="evenodd" d="M140.407 76.9427L140.407 79.8097L174.284 79.8097L174.284 76.9427L140.407 76.9427ZM140.127 80.0703L174.564 80.0703L174.564 76.682L140.127 76.682L140.127 80.0703Z" fill="#303030"/>
</g>
<g opacity="0.9">
<path fill-rule="evenodd" clip-rule="evenodd" d="M65.1269 0.552632H1.10385C0.799028 0.552632 0.551923 0.800053 0.551923 1.10526V40.8947C0.551923 41.1999 0.799027 41.4474 1.10385 41.4474H65.1269C65.4317 41.4474 65.6788 41.1999 65.6788 40.8947V1.10526C65.6788 0.800052 65.4317 0.552632 65.1269 0.552632ZM1.10385 0C0.494209 0 0 0.494844 0 1.10526V40.8947C0 41.5052 0.494208 42 1.10385 42H65.1269C65.7366 42 66.2308 41.5052 66.2308 40.8947V1.10526C66.2308 0.494843 65.7366 0 65.1269 0H1.10385Z" fill="#8F948A"/>
<path fill-rule="evenodd" clip-rule="evenodd" d="M1.51779 1.52116V37.5681H64.713V1.52116H1.51779ZM0.965863 0.415894C0.661045 0.415894 0.41394 0.663315 0.41394 0.968525V38.1207C0.41394 38.4259 0.661045 38.6733 0.965864 38.6733H65.2649C65.5697 38.6733 65.8168 38.4259 65.8168 38.1207V0.968525C65.8168 0.663315 65.5697 0.415894 65.2649 0.415894H0.965863Z" fill="#606060"/>
<path opacity="0.1" d="M1.10388 1.65784H65.127V37.5789H1.10388V1.65784Z" fill="url(#paint1_radial_6899_35780)"/>
<path d="M33.63 20.0602C35.2859 20.0602 36.5404 19.4496 37.2094 18.3893L35.5535 17.6344C35.1799 18.2339 34.5165 18.5669 33.6913 18.5669C32.565 18.5669 31.8347 18.0285 31.7566 17.1625H37.3488V16.6519C37.3488 16.1856 37.2819 15.7637 37.1481 15.3862H35.0629C35.1298 15.5472 35.1688 15.7304 35.1688 15.9358V15.9746H31.7455C31.7622 15.7581 31.8124 15.5583 31.8904 15.3862H30.2178V18.6558C30.8701 19.5606 32.0577 20.0602 33.63 20.0602Z" fill="#606060"/>
<path d="M33.5296 20.7921C32.0242 20.7921 30.8645 21.3139 30.2178 22.2465V23.1679H31.7956C31.974 22.463 32.5818 22.0466 33.5017 22.0466C34.405 22.0466 35.0238 22.463 35.1465 23.1679H37.2317C36.8526 21.6581 35.5535 20.7921 33.5296 20.7921Z" fill="#606060"/>
</g>
<mask id="mask1_6899_35780" style="mask-type:alpha" maskUnits="userSpaceOnUse" x="96" y="16" width="77" height="22">
<rect x="96.1287" y="16.9108" width="76.1539" height="20.3708" fill="url(#paint2_linear_6899_35780)"/>
</mask>
<g mask="url(#mask1_6899_35780)">
<path fill-rule="evenodd" clip-rule="evenodd" d="M98.8184 19.38L98.8184 33.4543L110.577 33.4543L110.577 19.38L98.8184 19.38ZM98.5385 33.715L110.857 33.715L110.857 19.1193L98.5385 19.1193L98.5385 33.715Z" fill="#303030"/>
<path fill-rule="evenodd" clip-rule="evenodd" d="M110.857 18.0768L110.857 34.7576L140.255 34.7576L140.255 18.0768L110.857 18.0768ZM110.577 35.0182L140.535 35.0182L140.535 17.8162L110.577 17.8162L110.577 35.0182Z" fill="#303030"/>
<rect x="98.8181" y="33.4819" width="2.08509" height="11.7591" transform="rotate(-90 98.8181 33.4819)" fill="#C4C4C4"/>
<rect x="110.857" y="34.7162" width="2.867" height="29.3976" transform="rotate(-90 110.857 34.7162)" fill="#C4C4C4"/>
<rect x="140.535" y="27.7754" width="1.82445" height="34.1572" transform="rotate(-90 140.535 27.7754)" fill="#C4C4C4"/>
<path fill-rule="evenodd" clip-rule="evenodd" d="M140.535 24.8534L140.535 27.7204L174.412 27.7204L174.412 24.8534L140.535 24.8534ZM140.255 27.9811L174.692 27.9811L174.692 24.5928L140.255 24.5928L140.255 27.9811Z" fill="#303030"/>
</g>
<path d="M29.6082 75.1242H33.1296L31.2881 79.8763C31.0225 80.5616 31.7441 80.9184 32.2117 80.369L37.9036 73.5893C38.0191 73.4533 38.0768 73.3174 38.0768 73.1701C38.0768 72.9096 37.869 72.717 37.5861 72.717H34.0648L35.9005 67.9593C36.166 67.2796 35.4444 66.9171 34.9826 67.4665L29.285 74.2463C29.1695 74.3879 29.1176 74.5181 29.1176 74.6654C29.1176 74.9316 29.3254 75.1242 29.6082 75.1242Z" fill="#5A5A5A"/>
<path d="M32.8035 68.3189H23.518C22.281 68.3189 21.2782 69.3217 21.2782 70.5587V77.2781C21.2782 78.5151 22.281 79.5179 23.518 79.5179H30.2266C30.0969 79.8799 30.0766 80.2772 30.181 80.6378H23.518C21.6625 80.6378 20.1583 79.1337 20.1583 77.2781V70.5587C20.1583 68.7032 21.6625 67.199 23.518 67.199H33.7447L32.8035 68.3189Z" fill="#5A5A5A"/>
<path d="M34.3886 79.5179H42.5565C43.7935 79.5179 44.7963 78.5151 44.7963 77.2781V70.5587C44.7963 69.3217 43.7935 68.3189 42.5565 68.3189H36.9616C37.0925 67.9556 37.112 67.5588 37.0074 67.199H42.5565C44.412 67.199 45.9162 68.7032 45.9162 70.5587V77.2781C45.9162 79.1337 44.412 80.6378 42.5565 80.6378H33.4484L34.3886 79.5179Z" fill="#5A5A5A"/>
<path d="M47.0361 71.6786C47.6546 71.6786 48.156 72.18 48.156 72.7985V75.0383C48.156 75.6568 47.6546 76.1582 47.0361 76.1582V71.6786Z" fill="#5A5A5A"/>
<path d="M28.4223 73.5322L31.8624 69.4388H23.5181C22.8996 69.4388 22.3982 69.9402 22.3982 70.5587V77.2782C22.3982 77.8967 22.8996 78.3981 23.5181 78.3981H30.66L31.4946 76.2442H29.6083C28.7819 76.2442 27.9977 75.6226 27.9977 74.6655C27.9977 74.2036 28.1786 73.8312 28.4171 73.5387L28.4223 73.5322Z" fill="#C2F056"/>
<path d="M35.6976 71.5972L36.5303 69.4388H42.5567C43.1753 69.4388 43.6767 69.9402 43.6767 70.5587V77.2782C43.6767 77.8967 43.1753 78.3981 42.5567 78.3981H35.3291L38.76 74.3115C39.0003 74.0274 39.197 73.6447 39.197 73.1702C39.197 72.2099 38.4033 71.5972 37.5864 71.5972H35.6976Z" fill="#C2F056"/>
<g opacity="0.66">
<path fill-rule="evenodd" clip-rule="evenodd" d="M3.44218 56.7945V90.1647H65.4016V56.7945H3.44218ZM3.1774 56C2.88492 56 2.64783 56.2371 2.64783 56.5297V90.4296C2.64783 90.7221 2.88492 90.9592 3.17739 90.9592H65.6664C65.9589 90.9592 66.196 90.7221 66.196 90.4296V56.5297C66.196 56.2371 65.9589 56 65.6664 56H3.1774Z" fill="#303030"/>
<path d="M33.4528 58.2739C33.4528 57.9528 33.713 57.6925 34.034 57.6925H34.2665C34.5875 57.6925 34.8477 57.9528 34.8477 58.2739C34.8477 58.5949 34.5875 58.8552 34.2665 58.8552H34.034C33.713 58.8552 33.4528 58.5949 33.4528 58.2739Z" fill="#5A5A5A"/>
<path opacity="0.1" d="M4.23657 59.7078H64.0778V88.8405H4.23657V59.7078Z" fill="#5A5A5A"/>
<path fill-rule="evenodd" clip-rule="evenodd" d="M68.3143 92.0186H0C0 92.2929 0.0347553 92.5591 0.100102 92.8131C0.452829 94.1838 1.69687 95.1967 3.17741 95.1967H65.1369C66.6174 95.1967 67.8615 94.1838 68.2142 92.8131C68.2795 92.5591 68.3143 92.2929 68.3143 92.0186ZM67.3843 92.8131H0.929953C1.2571 93.7389 2.13981 94.4021 3.17741 94.4021H65.1369C66.1745 94.4021 67.0572 93.7389 67.3843 92.8131Z" fill="#5A5A5A"/>
<path d="M28.5967 93.0781H39.188V93.6078H28.5967V93.0781Z" fill="#5A5A5A"/>
</g>
<defs>
<linearGradient id="paint0_linear_6899_35780" x1="134.077" y1="69" x2="168.539" y2="69" gradientUnits="userSpaceOnUse">
<stop stop-color="#C4C4C4"/>
<stop offset="1" stop-color="#C4C4C4" stop-opacity="0"/>
</linearGradient>
<radialGradient id="paint1_radial_6899_35780" cx="0" cy="0" r="1" gradientUnits="userSpaceOnUse" gradientTransform="translate(55.1493 13.9922) rotate(147.019) scale(38.1613 72.0219)">
<stop stop-color="#1D1F1C"/>
<stop offset="1" stop-color="#3A3333"/>
</radialGradient>
<linearGradient id="paint2_linear_6899_35780" x1="134.206" y1="16.9108" x2="168.668" y2="16.9108" gradientUnits="userSpaceOnUse">
<stop stop-color="#C4C4C4"/>
<stop offset="1" stop-color="#C4C4C4" stop-opacity="0"/>
</linearGradient>
</defs>
</svg>
